HIERARCHY
ROOT Hips
{
	OFFSET 0.00000 0.00000 0.00000
	CHANNELS 6 Xposition Yposition Zposition Zrotation Yrotation Xrotation 
	JOINT LHipJoint
	{
		OFFSET 0 0 0
		CHANNELS 3 Zrotation Yrotation Xrotation
		JOINT LeftHip
		{
			OFFSET 1.52977 -1.71332 0.88991
			CHANNELS 3 Zrotation Yrotation Xrotation
			JOINT LeftKnee
			{
				OFFSET 2.23949 -6.15296 0.00000
				CHANNELS 3 Zrotation Yrotation Xrotation
				JOINT LeftAnkle
				{
					OFFSET 2.68396 -7.37412 0.00000
					CHANNELS 3 Zrotation Yrotation Xrotation
					JOINT LeftToe
					{
						OFFSET 0.20538 -0.56428 2.52710
						CHANNELS 3 Zrotation Yrotation Xrotation
						End Site
						{
							OFFSET 0.00000 -0.00000 1.29919
						}
					}
				}
			}
		}
	}
	JOINT RHipJoint
	{
		OFFSET 0 0 0
		CHANNELS 3 Zrotation Yrotation Xrotation
		JOINT RightHip
		{
			OFFSET -1.45689 -1.71333 0.88991
			CHANNELS 3 Zrotation Yrotation Xrotation
			JOINT RightKnee
			{
				OFFSET -2.36700 -6.50329 0.00000
				CHANNELS 3 Zrotation Yrotation Xrotation
				JOINT RightAnkle
				{
					OFFSET -2.69814 -7.41308 0.00000
					CHANNELS 3 Zrotation Yrotation Xrotation
					JOINT RightToe
					{
						OFFSET -0.18734 -0.51471 2.37479
						CHANNELS 3 Zrotation Yrotation Xrotation
						End Site
						{
							OFFSET -0.00000 -0.00000 1.22113
						}
					}
				}
			}
		}
	}
	JOINT lowerback
	{
		OFFSET 0 0 0
		CHANNELS 3 Zrotation Yrotation Xrotation
		JOINT Chest
		{
			OFFSET 0.04294 2.14638 -0.31163
			CHANNELS 3 Zrotation Yrotation Xrotation
			JOINT Chest2
			{
				OFFSET -0.00400 2.17216 0.01486
				CHANNELS 3 Zrotation Yrotation Xrotation
				JOINT lowerneck
				{
					OFFSET 0 0 0
					CHANNELS 3 Zrotation Yrotation Xrotation
					JOINT Neck
					{
						OFFSET 0.03869 1.76598 0.14916
						CHANNELS 3 Zrotation Yrotation Xrotation
						JOINT Head
						{
							OFFSET -0.00760 1.75513 -0.18948
							CHANNELS 3 Zrotation Yrotation Xrotation
							End Site
							{
								OFFSET -0.00601 1.82444 -0.08310
							}
						}
					}
				}
				JOINT LeftCollar
				{
					OFFSET 0 0 0
					CHANNELS 3 Zrotation Yrotation Xrotation
					JOINT LeftShoulder
					{
						OFFSET 3.73696 0.92058 0.01733
CHANNELS 3 Zrotation Xrotation Yrotation
						JOINT LeftElbow
						{
OFFSET 0 -5.227710 0.000000
CHANNELS 3 Zrotation Xrotation Yrotation
							JOINT LeftWrist
							{
OFFSET 0 -3.452510 0.000000
CHANNELS 3 Zrotation Xrotation Yrotation
								JOINT lhand
								{
									OFFSET 0 0 0
CHANNELS 3 Zrotation Xrotation Yrotation
									JOINT LFingers
									{
OFFSET 0 -0.552120 0.000000
CHANNELS 3 Zrotation Xrotation Yrotation
										End Site
										{
OFFSET 0 -0.445130 0.000000
										}
									}
								}
								JOINT LThumb
								{
OFFSET 0 0.000000 0.000000
CHANNELS 3 Zrotation Xrotation Yrotation
									End Site
									{
OFFSET 0 -0.451930 0.451930
									}
								}
							}
						}
					}
				}
				JOINT RightCollar
				{
					OFFSET 0 0 0
					CHANNELS 3 Zrotation Yrotation Xrotation
					JOINT RightShoulder
					{
						OFFSET -3.63819 0.83094 -0.13694
CHANNELS 3 Zrotation Xrotation Yrotation
						JOINT RightElbow
						{
OFFSET 0 -5.239800 -0.000000
CHANNELS 3 Zrotation Xrotation Yrotation
							JOINT RightWrist
							{
OFFSET 0 -3.480420 -0.000000
CHANNELS 3 Zrotation Xrotation Yrotation
								JOINT rhand
								{
									OFFSET 0 0 0
CHANNELS 3 Zrotation Xrotation Yrotation
									JOINT RFingers
									{
OFFSET 0 -0.618710 0.000000
CHANNELS 3 Zrotation Xrotation Yrotation
										End Site
										{
OFFSET 0 -0.498820 0.000000
										}
									}
								}
								JOINT RThumb
								{
OFFSET 0 0.000000 0.000000
CHANNELS 3 Zrotation Xrotation Yrotation
									End Site
									{
OFFSET 0 -0.506440 0.506440
									}
								}
							}
						}
					}
				}
			}
		}
	}
}
MOTION
Frames: 12
Frame Time: 0.008333333333333333
15.702556 16.857393 -5.843483 -78.290682 -87.097431 75.254024 0.000000 0.000000 0.000000 -12.086735 5.048781 -4.225930 10.118692 17.475236 59.883254 0.163730 5.219472 7.536927 0.095813 -1.990630 -5.479888 0.000000 0.000000 0.000000 28.052245 9.147000 -11.619442 -2.531033 -9.894121 28.634470 -0.846787 -3.902575 -19.219479 -0.179759 -2.731052 7.530942 3.595970 -1.743775 -0.604640 0.369388 -2.393470 1.320429 -1.678083 -1.157422 1.563403 2.627628 0.434946 -5.956118 0.701874 0.319894 3.933455 -0.216128 0.218042 2.266906 0.000000 0.000000 0.000000 1.289003 5.526851 -20.938008 14.552926 -23.519492 3.045292 17.377493 -12.185763 -14.599538 0.000000 0.000000 0.000000 -7.125000 0.000000 0.000000 -9.434664 45.034493 0.008076 0.000000 0.000000 0.000000 -0.380241 3.568355 19.993147 -14.257523 -23.101527 -2.928447 -19.102095 6.094434 8.274315 0.000000 0.000000 0.000000 7.125000 0.000000 0.000000 6.701802 38.647825 1.054126
15.483978 16.865101 -5.869253 -79.167822 -86.764489 75.992887 0.000000 0.000000 0.000000 -11.857085 3.691740 -6.121401 10.656903 17.762317 61.661198 0.067683 4.054279 5.009467 0.164261 -2.604748 -7.180563 0.000000 0.000000 0.000000 28.673036 8.480312 -10.607246 -2.471601 -9.786068 28.286798 -0.849522 -3.826058 -19.201988 -0.203781 -2.906149 8.017586 3.941354 -1.636153 -0.451230 0.453885 -2.252980 1.393973 -1.778554 -1.083672 1.551585 2.605583 0.328716 -5.872693 0.795117 0.177601 3.910308 -0.188053 0.148828 2.242097 0.000000 0.000000 0.000000 1.284037 5.474266 -21.195812 14.809020 -23.879257 3.148275 17.222390 -12.595264 -14.407757 0.000000 0.000000 0.000000 -7.125000 0.000000 0.000000 -9.528716 44.819775 -0.042863 0.000000 0.000000 0.000000 -0.429966 3.444954 20.349499 -14.498458 -23.442747 -3.023617 -18.955211 5.905214 8.483156 0.000000 0.000000 0.000000 7.125000 0.000000 0.000000 6.857615 38.855536 1.043783
15.268552 16.866449 -5.894718 -80.634342 -86.453209 77.324604 0.000000 0.000000 0.000000 -11.643460 2.412957 -7.933200 11.073486 17.970682 63.019836 0.004679 3.084150 2.356965 0.237324 -3.134108 -8.652430 0.000000 0.000000 0.000000 29.277415 7.897439 -9.649348 -2.428728 -9.707107 28.033280 -0.848935 -3.804865 -19.184571 -0.230046 -3.086736 8.520464 4.255267 -1.523943 -0.293846 0.535782 -2.104620 1.458950 -1.864230 -1.006571 1.531451 2.574861 0.234344 -5.794777 0.908072 0.049864 3.917848 -0.151610 0.087513 2.228742 0.000000 0.000000 0.000000 1.302638 5.435677 -21.478229 15.080548 -24.258202 3.259043 17.000838 -13.006747 -14.213234 0.000000 0.000000 0.000000 -7.125000 0.000000 0.000000 -9.682314 44.594865 -0.097780 0.000000 0.000000 0.000000 -0.478290 3.283271 20.690921 -14.698972 -23.725106 -3.103834 -18.848592 5.714434 8.562326 0.000000 0.000000 0.000000 7.125000 0.000000 0.000000 6.960647 38.930403 1.046761
15.056209 16.860398 -5.919486 -82.676483 -86.201499 79.242666 0.000000 0.000000 0.000000 -11.488040 1.224806 -9.671414 11.362484 18.107800 63.953150 -0.016698 2.469457 -0.149047 0.282906 -3.420433 -9.451692 0.000000 0.000000 0.000000 29.830967 7.410540 -8.763638 -2.408509 -9.669694 27.913413 -0.858210 -3.780896 -19.262567 -0.252437 -3.232726 8.927436 4.505441 -1.405007 -0.139301 0.601853 -1.945080 1.513110 -1.930823 -0.924804 1.505325 2.535888 0.157299 -5.736649 1.035136 -0.056459 3.974638 -0.108577 0.037862 2.235769 0.000000 0.000000 0.000000 1.351609 5.422828 -21.788661 15.369948 -24.658859 3.378849 16.805769 -13.397663 -14.006192 0.000000 0.000000 0.000000 -7.125000 0.000000 0.000000 -9.808643 44.360907 -0.156368 0.000000 0.000000 0.000000 -0.514156 3.086813 21.012128 -14.861520 -23.952884 -3.169542 -18.807113 5.534350 8.555498 0.000000 0.000000 0.000000 7.125000 0.000000 0.000000 6.995184 38.920244 1.053783
14.846450 16.848981 -5.942953 -84.974871 -86.034154 81.437062 0.000000 0.000000 0.000000 -11.430676 0.098895 -11.341782 11.529736 18.184711 64.490234 -0.007309 2.205752 -2.381133 0.296633 -3.502191 -9.680113 0.000000 0.000000 0.000000 30.299844 7.030807 -7.944667 -2.410157 -9.672708 27.923254 -0.885625 -3.750690 -19.513680 -0.257881 -3.267132 9.023350 4.680996 -1.283138 0.005649 0.635596 -1.779513 1.558139 -1.989611 -0.840617 1.477473 2.506947 0.098425 -5.728029 1.154162 -0.141771 4.084270 -0.069025 -0.000641 2.269823 0.000000 0.000000 0.000000 1.440050 5.430124 -22.119551 15.674519 -25.077182 3.506958 16.690972 -13.745996 -13.794716 0.000000 0.000000 0.000000 -7.125000 0.000000 0.000000 -9.861258 44.131987 -0.213456 0.000000 0.000000 0.000000 -0.519314 2.867656 21.301502 -15.003670 -24.151174 -3.227492 -18.828099 5.350203 8.488088 0.000000 0.000000 0.000000 7.125000 0.000000 0.000000 6.967273 38.851253 1.061410
14.638336 16.834017 -5.964480 -87.276969 -85.918909 83.655898 0.000000 0.000000 0.000000 -11.444134 -0.997321 -12.945958 11.587389 18.210760 64.674875 0.022767 2.180760 -4.449136 0.317310 -3.621034 -10.012798 0.000000 0.000000 0.000000 30.706453 6.741001 -7.173407 -2.429718 -9.709022 28.039537 -0.931924 -3.700398 -19.931370 -0.247157 -3.199028 8.833421 4.824493 -1.165647 0.138482 0.641692 -1.618788 1.596453 -2.059562 -0.759063 1.450073 2.500956 0.059707 -5.767835 1.248444 -0.202897 4.220920 -0.040420 -0.026783 2.322124 0.000000 0.000000 0.000000 1.564714 5.447925 -22.453471 15.984134 -25.498998 3.639116 16.639807 -14.046077 -13.588085 0.000000 0.000000 0.000000 -7.125000 0.000000 0.000000 -9.858072 43.915430 -0.266631 0.000000 0.000000 0.000000 -0.495898 2.640936 21.571303 -15.144224 -24.346553 -3.285178 -18.886748 5.147230 8.400419 0.000000 0.000000 0.000000 7.125000 0.000000 0.000000 6.904241 38.763960 1.066554
14.431553 16.815125 -5.983334 -89.197326 -85.820906 85.515211 0.000000 0.000000 0.000000 -11.497538 -2.103581 -14.481216 11.540169 18.189367 64.523544 0.068438 2.343299 -6.363630 0.349821 -3.799618 -10.513591 0.000000 0.000000 0.000000 31.068179 6.501508 -6.442895 -2.463198 -9.770720 28.237381 -0.998984 -3.562515 -20.483048 -0.238953 -3.145803 8.684856 4.976932 -1.063506 0.259299 0.630277 -1.477908 1.622822 -2.153235 -0.687304 1.415779 2.509211 0.037695 -5.823238 1.311526 -0.241610 4.352004 -0.023324 -0.042311 2.375756 0.000000 0.000000 0.000000 1.717179 5.478233 -22.771911 16.286141 -25.906982 3.770151 16.624677 -14.304309 -13.393829 0.000000 0.000000 0.000000 -7.125000 0.000000 0.000000 -9.825891 43.715441 -0.314721 0.000000 0.000000 0.000000 -0.451832 2.442335 21.841184 -15.306155 -24.570804 -3.352225 -18.951944 4.916625 8.343520 0.000000 0.000000 0.000000 7.125000 0.000000 0.000000 6.840179 38.709290 1.065853
14.225833 16.791695 -5.999813 -90.588455 -85.696800 86.871459 0.000000 0.000000 0.000000 -11.528400 -3.231723 -15.978465 11.410646 18.130143 64.107984 0.123767 2.614028 -8.129456 0.400392 -4.061592 -11.250132 0.000000 0.000000 0.000000 31.423570 6.270314 -5.750769 -2.502665 -9.842695 28.468966 -1.077545 -3.333927 -21.073599 -0.236274 -3.128517 8.636776 5.175671 -0.980479 0.369357 0.620717 -1.362332 1.631794 -2.271414 -0.628280 1.367680 2.511454 0.023308 -5.849663 1.351851 -0.266569 4.446049 -0.011934 -0.052214 2.411927 0.000000 0.000000 0.000000 1.882185 5.520763 -23.066745 16.571810 -26.289727 3.895858 16.634564 -14.537284 -13.207028 0.000000 0.000000 0.000000 -7.125000 0.000000 0.000000 -9.773566 43.525933 -0.359144 0.000000 0.000000 0.000000 -0.405478 2.291358 22.131356 -15.501765 -24.840369 -3.434028 -18.947129 4.699274 8.384327 0.000000 0.000000 0.000000 7.125000 0.000000 0.000000 6.850191 38.751653 1.060212
14.020377 16.764448 -6.014191 -91.552071 -85.528123 87.821233 0.000000 0.000000 0.000000 -11.501806 -4.354369 -17.442743 11.212220 18.037302 63.468809 0.182549 2.937906 -9.704348 0.460880 -4.354387 -12.075765 0.000000 0.000000 0.000000 31.792478 6.016545 -5.091172 -2.542089 -9.913941 28.698522 -1.163162 -3.031996 -21.671293 -0.235739 -3.125093 8.627179 5.437107 -0.911505 0.465217 0.621145 -1.265999 1.629008 -2.414857 -0.578604 1.313673 2.500886 0.008878 -5.828950 1.377014 -0.286852 4.486808 -0.002847 -0.061430 2.421555 0.000000 0.000000 0.000000 2.052910 5.572613 -23.346165 16.842296 -26.649398 4.016376 16.673887 -14.756023 -13.032374 0.000000 0.000000 0.000000 -7.125000 0.000000 0.000000 -9.698261 43.351827 -0.398444 0.000000 0.000000 0.000000 -0.363241 2.189814 22.450565 -15.733119 -25.157412 -3.531745 -18.889953 4.452786 8.446214 0.000000 0.000000 0.000000 7.125000 0.000000 0.000000 6.908087 38.812161 1.058961
13.815022 16.735008 -6.026504 -92.316801 -85.315801 88.591318 0.000000 0.000000 0.000000 -11.405979 -5.413585 -18.868953 10.942592 17.906678 62.594775 0.238219 3.242451 -10.996273 0.514720 -4.597962 -12.765382 0.000000 0.000000 0.000000 32.172850 5.716238 -4.466698 -2.577131 -9.976884 28.901835 -1.249231 -2.690338 -22.236627 -0.232581 -3.103783 8.567968 5.758536 -0.849510 0.535670 0.634049 -1.180962 1.630025 -2.579768 -0.533685 1.277281 2.474381 -0.005736 -5.783339 1.395915 -0.303330 4.469183 0.007144 -0.069971 2.407185 0.000000 0.000000 0.000000 2.217157 5.588821 -23.585715 17.076142 -26.958010 4.121840 16.747177 -14.938769 -12.880246 0.000000 0.000000 0.000000 -7.125000 0.000000 0.000000 -9.598316 43.204111 -0.429606 0.000000 0.000000 0.000000 -0.330401 2.110615 22.807134 -15.991583 -25.509184 -3.642383 -18.807129 4.111962 8.434545 0.000000 0.000000 0.000000 7.125000 0.000000 0.000000 6.977309 38.793854 1.072855
13.609644 16.705393 -6.037451 -93.108907 -85.085437 89.406209 0.000000 0.000000 0.000000 -11.265069 -6.353515 -20.261966 10.607146 17.736950 61.498548 0.288447 3.456220 -12.016888 0.555730 -4.775169 -13.268462 0.000000 0.000000 0.000000 32.551876 5.375980 -3.859877 -2.605035 -10.026402 29.062385 -1.328271 -2.355388 -22.733937 -0.228811 -3.078633 8.497682 6.102813 -0.788658 0.579313 0.654940 -1.099862 1.640601 -2.749992 -0.489825 1.266183 2.440592 -0.015950 -5.732819 1.410878 -0.311934 4.403195 0.017451 -0.075456 2.375820 0.000000 0.000000 0.000000 2.363074 5.542756 -23.751317 17.251113 -27.187621 4.201415 16.845555 -15.064983 -12.755866 0.000000 0.000000 0.000000 -7.125000 0.000000 0.000000 -9.482799 43.087316 -0.451912 0.000000 0.000000 0.000000 -0.311311 2.025839 23.206796 -16.259671 -25.871292 -3.758579 -18.735442 3.689703 8.370853 0.000000 0.000000 0.000000 7.125000 0.000000 0.000000 7.029396 38.722114 1.093456
13.404733 16.677860 -6.048097 -93.919639 -84.867245 90.262305 0.000000 0.000000 0.000000 -11.118307 -7.161318 -21.610805 10.204511 17.523095 60.169526 0.333658 3.567908 -12.817468 0.584781 -4.896386 -13.613333 0.000000 0.000000 0.000000 32.908601 5.004138 -3.253049 -2.620146 -10.053201 29.149266 -1.397886 -2.067075 -23.166726 -0.226074 -3.060557 8.447347 6.423790 -0.730417 0.599381 0.678445 -1.024007 1.657418 -2.904933 -0.448150 1.275590 2.406656 -0.021036 -5.684040 1.418682 -0.312483 4.302548 0.025826 -0.077595 2.333310 0.000000 0.000000 0.000000 2.485353 5.431455 -23.825035 17.356312 -27.325113 4.249604 16.942933 -15.124893 -12.656793 0.000000 0.000000 0.000000 -7.125000 0.000000 0.000000 -9.374027 42.996110 -0.467957 0.000000 0.000000 0.000000 -0.306758 1.926227 23.648694 -16.526496 -26.229231 -3.875706 -18.685823 3.270670 8.358096 0.000000 0.000000 0.000000 7.125000 0.000000 0.000000 7.070026 38.705114 1.102820
